<svg xmlns="http://www.w3.org/2000/svg" viewBox="0 -0.5 16 16" shape-rendering="crispEdges">
<metadata>Made with Pixels to Svg https://codepen.io/shshaw/pen/XbxvNj</metadata>
<path stroke="#000000" d="M1 0h2M13 0h2M0 1h1M3 1h1M12 1h1M15 1h1M0 2h1M4 2h1M11 2h1M15 2h1M1 3h1M5 3h1M10 3h1M14 3h1M2 4h1M6 4h1M9 4h1M13 4h1M3 5h1M7 5h2M12 5h1M4 6h1M11 6h1M5 7h1M10 7h1M5 8h1M10 8h1M4 9h1M11 9h1M3 10h1M7 10h2M12 10h1M2 11h1M6 11h1M9 11h1M13 11h1M1 12h1M5 12h1M10 12h1M14 12h1M0 13h1M4 13h1M11 13h1M15 13h1M0 14h1M3 14h1M12 14h1M15 14h1M1 15h2M13 15h2" />
<path stroke="#ff1818" d="M1 1h2M1 2h3M12 2h2M2 3h3M11 3h2M3 4h3M10 4h2M4 5h3M9 5h2M5 6h5M6 7h3M6 8h3M6 9h4M5 10h1M10 10h1M4 11h1M11 11h1M3 12h1M12 12h1M2 13h1M13 13h1M1 14h1M14 14h1" />
<path stroke="#d40202" d="M13 1h2M14 2h1M13 3h1M12 4h1M11 5h1M10 6h1M9 7h1M9 8h1M5 9h1M10 9h1M4 10h1M6 10h1M9 10h1M11 10h1M3 11h1M5 11h1M10 11h1M12 11h1M2 12h1M4 12h1M11 12h1M13 12h1M1 13h1M3 13h1M12 13h1M14 13h1M2 14h1M13 14h1" />
</svg>