<svg xmlns="http://www.w3.org/2000/svg" viewBox="0 -0.5 16 16" shape-rendering="crispEdges">
<metadata>Made with Pixels to Svg https://codepen.io/shshaw/pen/XbxvNj</metadata>
<path stroke="#000000" d="M5 0h6M4 1h1M11 1h1M3 2h1M12 2h1M2 3h1M13 3h1M2 4h1M13 4h1M2 5h1M13 5h1M2 6h1M13 6h1M2 7h1M13 7h1M3 8h1M12 8h1M4 9h1M11 9h1M5 10h1M10 10h1M5 11h5M5 12h1M10 12h1M5 13h1M10 13h1M5 14h1M10 14h1M6 15h4" />
<path stroke="rgba(41,41,41,0.6627450980392157)" d="M5 1h1M3 3h1M12 3h1" />
<path stroke="rgba(97,97,97,0.4823529411764706)" d="M6 1h1M5 2h1M4 3h1M3 4h1M12 4h1M6 9h1M9 9h1" />
<path stroke="rgba(166,166,166,0.3607843137254902)" d="M7 1h2M6 2h4M5 3h1M8 3h3M4 4h8M4 5h8M4 6h8M5 7h7M5 8h1M7 8h4" />
<path stroke="rgba(124,124,124,0.42745098039215684)" d="M9 1h1M10 2h1M11 3h1M3 5h1M12 5h1M3 6h1M12 6h1M7 9h2M7 10h2" />
<path stroke="rgba(53,53,53,0.6274509803921569)" d="M10 1h1M12 7h1M4 8h1M11 8h1M5 9h1M10 9h1" />
<path stroke="rgba(65,65,65,0.5843137254901961)" d="M4 2h1M11 2h1M3 7h1M6 10h1" />
<path stroke="rgba(230,230,230,0.3607843137254902)" d="M6 3h2" />
<path stroke="rgba(123,123,123,0.43137254901960786)" d="M4 7h1" />
<path stroke="rgba(154,154,154,0.3764705882352941)" d="M6 8h1" />
<path stroke="rgba(65,65,65,0.5882352941176471)" d="M9 10h1" />
<path stroke="rgba(0,0,0,0.9529411764705882)" d="M10 11h1" />
<path stroke="#929292" d="M6 12h1M7 13h3M6 14h2" />
<path stroke="#4d4d4d" d="M7 12h3M6 13h1M8 14h2" />
</svg>