<svg xmlns="http://www.w3.org/2000/svg" viewBox="0 -0.5 16 16" shape-rendering="crispEdges">
<metadata>Made with Pixels to Svg https://codepen.io/shshaw/pen/XbxvNj</metadata>
<path stroke="#000000" d="M5 0h6M4 1h1M11 1h1M3 2h1M12 2h1M2 3h1M13 3h1M2 4h1M13 4h1M2 5h1M13 5h1M2 6h1M13 6h1M2 7h1M13 7h1M3 8h1M12 8h1M4 9h1M11 9h1M5 10h1M10 10h1M5 11h6M5 12h1M10 12h1M5 13h1M10 13h1M5 14h1M10 14h1M6 15h4" />
<path stroke="#574d00" d="M5 1h1M10 1h1M5 9h1M10 9h1" />
<path stroke="#b39f00" d="M6 1h1M9 1h1" />
<path stroke="#dec700" d="M7 1h2M7 9h2M7 10h2" />
<path stroke="#8c7e00" d="M4 2h1M4 8h1" />
<path stroke="#e2cb00" d="M5 2h1M10 2h1M5 8h1M10 8h1" />
<path stroke="#fce300" d="M6 2h1M9 2h1M6 8h1M9 8h1" />
<path stroke="#ffe900" d="M7 2h2M5 3h1M8 3h3M5 4h6M4 5h8M5 6h6M5 7h6M7 8h2" />
<path stroke="#8d7f00" d="M11 2h1M11 8h1" />
<path stroke="#615500" d="M3 3h1M3 7h1" />
<path stroke="#e7d000" d="M4 3h1M4 7h1" />
<path stroke="#fff7c2" d="M6 3h2" />
<path stroke="#e8d000" d="M11 3h1M11 7h1" />
<path stroke="#625600" d="M12 3h1M12 7h1" />
<path stroke="#c6b200" d="M3 4h1M3 6h1" />
<path stroke="#ffe800" d="M4 4h1M11 4h1M4 6h1M11 6h1" />
<path stroke="#c7b300" d="M12 4h1" />
<path stroke="#e5ce00" d="M3 5h1" />
<path stroke="#e6cf00" d="M12 5h1" />
<path stroke="#c9b300" d="M12 6h1" />
<path stroke="#b4a000" d="M6 9h1M9 9h1M6 10h1M9 10h1" />
<path stroke="#929292" d="M6 12h1M7 13h3M6 14h2" />
<path stroke="#4d4d4d" d="M7 12h3M6 13h1M8 14h2" />
</svg>