<svg xmlns="http://www.w3.org/2000/svg" viewBox="0 -0.5 16 16" shape-rendering="crispEdges">
<metadata>Made with Pixels to Svg https://codepen.io/shshaw/pen/XbxvNj</metadata>
<path stroke="#000000" d="M11 0h2M10 1h1M13 1h1M9 2h1M14 2h1M8 3h1M15 3h1M7 4h1M15 4h1M6 5h1M14 5h1M5 6h1M13 6h1M4 7h1M12 7h1M3 8h1M11 8h1M2 9h1M10 9h1M1 10h1M9 10h1M0 11h1M8 11h1M0 12h1M7 12h1M0 13h1M6 13h1M0 14h2M5 14h1M0 15h5" />
<path stroke="#ff97e8" d="M11 1h2M11 2h1" />
<path stroke="#636363" d="M10 2h1M9 3h2M9 4h1" />
<path stroke="#ff72db" d="M12 2h2M12 3h2" />
<path stroke="#515151" d="M11 3h1M10 4h3M9 5h3M10 6h1" />
<path stroke="#f05bb9" d="M14 3h1M13 4h2" />
<path stroke="#ffe33b" d="M8 4h1M7 5h2M6 6h2M5 7h2M4 8h2M3 9h2M2 10h2M2 11h1" />
<path stroke="#303030" d="M12 5h2M11 6h2" />
<path stroke="#ffd700" d="M8 6h2M7 7h3M6 8h3M5 9h3M4 10h3M3 11h3M3 12h2" />
<path stroke="#b48f00" d="M10 7h2M9 8h2M8 9h2M7 10h2M6 11h2M5 12h2M4 13h2" />
<path stroke="#b97e53" d="M1 11h1M1 12h1M1 13h1" />
<path stroke="#9d6c46" d="M2 12h1M2 13h2M2 14h3" />
</svg>