<svg xmlns="http://www.w3.org/2000/svg" viewBox="0 -0.5 16 16" shape-rendering="crispEdges">
<metadata>Made with Pixels to Svg https://codepen.io/shshaw/pen/XbxvNj</metadata>
<path stroke="#000000" d="M0 0h8M0 1h1M7 1h1M1 2h1M7 2h1M2 3h1M7 3h1M12 3h2M1 4h1M7 4h1M12 4h1M14 4h1M1 5h1M3 5h2M7 5h1M12 5h1M14 5h1M0 6h1M3 6h1M5 6h1M7 6h1M13 6h1M15 6h1M0 7h1M2 7h1M6 7h2M13 7h1M15 7h1M0 8h1M2 8h1M13 8h1M15 8h1M0 9h1M2 9h1M13 9h1M15 9h1M0 10h1M3 10h1M13 10h1M15 10h1M1 11h1M3 11h1M12 11h1M14 11h1M1 12h1M3 12h2M11 12h2M14 12h1M1 13h2M5 13h6M13 13h1M3 14h2M11 14h2M5 15h6" />
<path stroke="#0089ff" d="M1 1h6M2 2h4M3 3h2M2 4h2M13 4h1M2 5h1M13 5h1M1 6h2M14 6h1M1 7h1M14 7h1M1 8h1M14 8h1M1 9h1M14 9h1M1 10h2M14 10h1M2 11h1M13 11h1M2 12h1M13 12h1M3 13h2M11 13h2M5 14h6" />
<path stroke="#005ed2" d="M6 2h1M5 3h2M4 4h3M5 5h2M6 6h1" />
</svg>