<svg xmlns="http://www.w3.org/2000/svg" viewBox="0 -0.5 16 16" shape-rendering="crispEdges">
<metadata>Made with Pixels to Svg https://codepen.io/shshaw/pen/XbxvNj</metadata>
<path stroke="#000000" d="M8 0h8M8 1h1M15 1h1M8 2h1M14 2h1M2 3h2M8 3h1M13 3h1M1 4h1M3 4h1M8 4h1M14 4h1M1 5h1M3 5h1M8 5h1M11 5h2M14 5h1M0 6h1M2 6h1M8 6h1M10 6h1M12 6h1M15 6h1M0 7h1M2 7h1M8 7h2M13 7h1M15 7h1M0 8h1M2 8h1M13 8h1M15 8h1M0 9h1M2 9h1M13 9h1M15 9h1M0 10h1M2 10h1M12 10h1M15 10h1M1 11h1M3 11h1M12 11h1M14 11h1M1 12h1M3 12h2M11 12h2M14 12h1M2 13h1M5 13h6M13 13h2M3 14h2M11 14h2M5 15h6" />
<path stroke="#0089ff" d="M9 1h6M10 2h4M11 3h2M2 4h1M12 4h2M2 5h1M13 5h1M1 6h1M13 6h2M1 7h1M14 7h1M1 8h1M14 8h1M1 9h1M14 9h1M1 10h1M13 10h2M2 11h1M13 11h1M2 12h1M13 12h1M3 13h2M11 13h2M5 14h6" />
<path stroke="#005ed2" d="M9 2h1M9 3h2M9 4h3M9 5h2M9 6h1" />
</svg>